<svg width="134.002" height="84.502" viewBox="0 0 134.002 84.502" xmlns="http://www.w3.org/2000/svg"><g id="svgGroup" stroke-linecap="round" fill-rule="evenodd" font-size="9pt" stroke="#faf2f2" stroke-width="0.25mm" fill="#e5f228" style="stroke:#faf2f2;stroke-width:0.25mm;fill:#e5f228"><path d="M 88.5 59.4 L 91.7 75.6 Q 97.5 79.6 108 79.6 Q 115.1 79.6 118.65 75.5 Q 122.2 71.4 122.2 65.7 Q 122.2 62.7 121.7 60.65 Q 121.2 58.6 119.55 56 Q 117.9 53.4 114.3 50.8 Q 110.7 48.2 104.9 45.3 Q 98.1 41.9 93.9 38.9 Q 89.7 35.9 87.6 32.7 Q 85.5 29.5 84.8 26.6 Q 84.1 23.7 84.1 19.4 Q 84.1 10.6 91.15 5.75 Q 98.2 0.9 107.8 0.9 Q 119.7 0.9 130.8 6.9 L 130.8 26.1 Q 127.4 26.7 125.1 26.1 L 121.9 8.8 Q 115.5 5.3 107.6 5.3 Q 102.3 5.3 98.65 8.45 Q 95 11.6 95 17.3 Q 95 20.5 95.4 22.3 Q 95.8 24.1 97.4 26.55 Q 99 29 102.7 31.45 Q 106.4 33.9 112.6 36.9 Q 134 47.3 134 61.7 Q 134 71.9 126.2 78.2 Q 118.4 84.5 105.8 84.5 Q 93.3 84.5 82.8 78.6 L 82.8 59.4 Q 86.2 58.8 88.5 59.4 Z M 22.5 53.2 L 13.6 78.1 L 21.7 79.1 Q 22.1 80.6 21.7 82.8 Q 15.4 82.5 11.1 82.5 Q 8.7 82.5 0.3 82.7 Q -0.3 80.9 0.3 79.1 L 6.9 77.9 Q 8.5 75.5 10.9 69 L 36.7 0 L 40.2 0 L 69.2 78.1 L 77.3 79.1 Q 77.7 80.6 77.3 82.8 Q 71 82.5 63.2 82.5 Q 57.4 82.5 49 82.7 Q 48.4 80.9 49 79.1 L 57.3 77.9 L 48.5 53.2 L 22.5 53.2 Z M 35.8 15.1 L 35.7 15.1 Q 34.5 19.8 31.8 27.4 L 24.3 48.2 L 46.7 48.2 L 39.4 27.4 Q 37.3 21.3 35.8 15.1 Z" vector-effect="non-scaling-stroke"/></g></svg>